<svg xmlns="http://www.w3.org/2000/svg" viewBox="0 0 24 24" fill="none">
  <path
    d="M7 17.0001C7 16.0743 7 15.611 7.44655 15.3056C7.66556 15.1648 7.92089 15.0819 8.18353 15.0681C8.75876 15.0382 9.27518 15.5546 10.308 16.5874L11.184 17.4634C11.4049 17.6843 11.5153 17.7947 11.6458 17.8442C11.7593 17.8866 11.8796 17.8866 11.9931 17.8442C12.1236 17.7947 12.234 17.6843 12.4549 17.4634L14.9996 14.9187C16.2529 13.6654 16.8795 13.0387 16.7601 12.4224C16.7116 12.1679 16.6028 11.9265 16.4426 11.7157C16.1145 11.2791 15.3253 11.0553 13.7468 10.6076C11.8604 10.0662 10.9172 9.79553 10.1336 10.0077C9.66743 10.1248 9.24322 10.35 8.897 10.6569C8.28702 11.1877 8.00912 12.0369 7.45333 13.7354C7.15452 14.6441 7.00512 15.0984 7.00001 15.5172C6.99759 15.7215 7.02517 15.925 7.08167 16.1209C7.18601 16.4814 7.4662 16.7616 8.02655 17.3221C8.02744 17.323 8.02832 17.3238 8.02921 17.3247"
    stroke="#4CAF50"
    stroke-width="2"
    stroke-linecap="round"
  />
  <path
    d="M12 22C17.5228 22 22 17.5228 22 12C22 6.47715 17.5228 2 12 2C6.47715 2 2 6.47715 2 12C2 17.5228 6.47715 22 12 22Z"
    stroke="#4CAF50"
    stroke-width="2"
  />
</svg>
